# xmcd
#
# Track frame offsets:
#	150
#	17129
#	41916
#	58543
#	73244
#	87349
#	104008
#	119895
#	135533
#	149525
#	164969
#	181668
#	195800
#	210905
#	223872
#	236818
#	248046
#	255737
#	268967
#	283549
#
# Disc length: 3906 seconds
#
# Revision: 1
# Processed by: cddbd v1.5.2PL0 Copyright (c) Steve Scherf et al.
# Submitted via: audiograbber 1.83.01
#
DISCID=420f4014
DTITLE=Diversen - Hollandse Nieuwe Kerst
DYEAR=1900
DGENRE=
TTITLE0=Stafke Fabri - Kersmis deur de jaore
TTITLE1=Bonnie, Ronnie, Ciska, Nico, Willeke, Harmen, Ome Jan - Een heel gelukk
TTITLE1=ig kerstfeest
TTITLE2=Helemaal Hollands - Een ster vernoemd naar jou
TTITLE3=Rob van Daal - Wees mijn kerstmis
TTITLE4=De Hollandse Kerststerren - Kerstmis is een feest voor iedereen
TTITLE5=Frans Bauer and Marianne Weber - Steek dan een kaarsje aan
TTITLE6=Koos Albers - Wintertijd
TTITLE7=Thomas Berge - Kerstfeest van mijn dromen
TTITLE8=Stef Ekkel - Het is winter
TTITLE9=De Havenzangers - Als de klokken luiden gaan
TTITLE10=Emile Hartkamp - Een prachtige witte kerst
TTITLE11=Frans Bauer - Komt allen tezamen
TTITLE12=Doenja and Frank Verkooijen and Theo van Cleeff - Keerstfeest voor iederee
TTITLE12=n
TTITLE13=Hanny - 'n Lichtje voor mij
TTITLE14=Jantje smit - Oh denneboom
TTITLE15=Frank and Mirella - Jingle bells
TTITLE16=Goldfinger - De arreslee
TTITLE17=Het Holland Duo - Kerstmis in alle landen
TTITLE18=Andre van Duin - Samen door Winterwonderland Medley
TTITLE19=Ferry de Lits - Na deze kerstmis
EXTD=
EXTT0=
EXTT1=
EXTT2=
EXTT3=
EXTT4=
EXTT5=
EXTT6=
EXTT7=
EXTT8=
EXTT9=
EXTT10=
EXTT11=
EXTT12=
EXTT13=
EXTT14=
EXTT15=
EXTT16=
EXTT17=
EXTT18=
EXTT19=
PLAYORDER=
